<svg width="128" height="128" viewBox="0 0 128 128" fill="none" xmlns="http://www.w3.org/2000/svg">
<rect width="128" height="128" fill="#292826"/>
<path d="M18.9837 76.096C19.3357 76.096 19.6237 76.0693 19.8477 76.016C20.0824 75.952 20.269 75.872 20.4077 75.776C20.5464 75.6693 20.6424 75.5467 20.6957 75.408C20.749 75.2693 20.7757 75.1147 20.7757 74.944C20.7757 74.5813 20.605 74.2827 20.2637 74.048C19.9224 73.8027 19.3357 73.5413 18.5037 73.264C18.141 73.136 17.7784 72.992 17.4157 72.832C17.053 72.6613 16.7277 72.4533 16.4397 72.208C16.1517 71.952 15.917 71.648 15.7357 71.296C15.5544 70.9333 15.4637 70.496 15.4637 69.984C15.4637 69.472 15.5597 69.0133 15.7517 68.608C15.9437 68.192 16.2157 67.84 16.5677 67.552C16.9197 67.264 17.3464 67.0453 17.8477 66.896C18.349 66.736 18.9144 66.656 19.5437 66.656C20.2904 66.656 20.9357 66.736 21.4797 66.896C22.0237 67.056 22.4717 67.232 22.8237 67.424L22.1037 69.392C21.7944 69.232 21.4477 69.0933 21.0637 68.976C20.6904 68.848 20.237 68.784 19.7037 68.784C19.1064 68.784 18.6744 68.8693 18.4077 69.04C18.1517 69.2 18.0237 69.4507 18.0237 69.792C18.0237 69.9947 18.0717 70.1653 18.1677 70.304C18.2637 70.4427 18.397 70.5707 18.5677 70.688C18.749 70.7947 18.9517 70.896 19.1757 70.992C19.4104 71.0773 19.6664 71.168 19.9437 71.264C20.5197 71.4773 21.021 71.6907 21.4477 71.904C21.8744 72.1067 22.2264 72.3467 22.5037 72.624C22.7917 72.9013 23.005 73.2267 23.1437 73.6C23.2824 73.9733 23.3517 74.4267 23.3517 74.96C23.3517 75.9947 22.989 76.8 22.2637 77.376C21.5384 77.9413 20.445 78.224 18.9837 78.224C18.493 78.224 18.0504 78.192 17.6557 78.128C17.261 78.0747 16.909 78.0053 16.5997 77.92C16.301 77.8347 16.0397 77.744 15.8157 77.648C15.6024 77.552 15.421 77.4613 15.2717 77.376L15.9757 75.392C16.3064 75.5733 16.7117 75.7387 17.1917 75.888C17.6824 76.0267 18.2797 76.096 18.9837 76.096ZM25.0322 67.488L27.4162 67.104V69.584H30.2802V71.568H27.4162V74.528C27.4162 75.0293 27.5015 75.4293 27.6722 75.728C27.8535 76.0267 28.2109 76.176 28.7442 76.176C29.0002 76.176 29.2615 76.1547 29.5282 76.112C29.8055 76.0587 30.0562 75.9893 30.2802 75.904L30.6162 77.76C30.3282 77.8773 30.0082 77.9787 29.6562 78.064C29.3042 78.1493 28.8722 78.192 28.3602 78.192C27.7095 78.192 27.1709 78.1067 26.7442 77.936C26.3175 77.7547 25.9762 77.5093 25.7202 77.2C25.4642 76.88 25.2829 76.496 25.1762 76.048C25.0802 75.6 25.0322 75.104 25.0322 74.56V67.488ZM39.7811 73.776C39.7811 74.4373 39.6851 75.0453 39.4931 75.6C39.3011 76.144 39.0237 76.6133 38.6611 77.008C38.2984 77.392 37.8611 77.6907 37.3491 77.904C36.8477 78.1173 36.2824 78.224 35.6531 78.224C35.0344 78.224 34.4691 78.1173 33.9571 77.904C33.4557 77.6907 33.0237 77.392 32.6611 77.008C32.2984 76.6133 32.0157 76.144 31.8131 75.6C31.6104 75.0453 31.5091 74.4373 31.5091 73.776C31.5091 73.1147 31.6104 72.512 31.8131 71.968C32.0264 71.424 32.3144 70.96 32.6771 70.576C33.0504 70.192 33.4877 69.8933 33.9891 69.68C34.5011 69.4667 35.0557 69.36 35.6531 69.36C36.2611 69.36 36.8157 69.4667 37.3171 69.68C37.8291 69.8933 38.2664 70.192 38.6291 70.576C38.9917 70.96 39.2744 71.424 39.4771 71.968C39.6797 72.512 39.7811 73.1147 39.7811 73.776ZM37.3491 73.776C37.3491 73.04 37.1997 72.464 36.9011 72.048C36.6131 71.6213 36.1971 71.408 35.6531 71.408C35.1091 71.408 34.6877 71.6213 34.3891 72.048C34.0904 72.464 33.9411 73.04 33.9411 73.776C33.9411 74.512 34.0904 75.0987 34.3891 75.536C34.6877 75.9627 35.1091 76.176 35.6531 76.176C36.1971 76.176 36.6131 75.9627 36.9011 75.536C37.1997 75.0987 37.3491 74.512 37.3491 73.776ZM41.2278 73.792C41.2278 73.184 41.3238 72.6133 41.5158 72.08C41.7185 71.536 42.0065 71.0667 42.3798 70.672C42.7531 70.2667 43.2065 69.9467 43.7398 69.712C44.2731 69.4773 44.8811 69.36 45.5638 69.36C46.0118 69.36 46.4225 69.4027 46.7958 69.488C47.1691 69.5627 47.5318 69.6747 47.8838 69.824L47.3878 71.728C47.1638 71.6427 46.9185 71.568 46.6518 71.504C46.3851 71.44 46.0865 71.408 45.7558 71.408C45.0518 71.408 44.5238 71.6267 44.1718 72.064C43.8305 72.5013 43.6598 73.0773 43.6598 73.792C43.6598 74.5493 43.8198 75.136 44.1398 75.552C44.4705 75.968 45.0411 76.176 45.8518 76.176C46.1398 76.176 46.4491 76.1493 46.7798 76.096C47.1105 76.0427 47.4145 75.9573 47.6918 75.84L48.0278 77.792C47.7505 77.9093 47.4038 78.0107 46.9878 78.096C46.5718 78.1813 46.1131 78.224 45.6118 78.224C44.8438 78.224 44.1825 78.112 43.6278 77.888C43.0731 77.6533 42.6145 77.3387 42.2518 76.944C41.8998 76.5493 41.6385 76.0853 41.4678 75.552C41.3078 75.008 41.2278 74.4213 41.2278 73.792ZM52.0118 72.624C52.2465 72.368 52.4865 72.1013 52.7318 71.824C52.9878 71.5467 53.2331 71.2747 53.4678 71.008C53.7025 70.7307 53.9211 70.4693 54.1238 70.224C54.3371 69.9787 54.5185 69.7653 54.6678 69.584H57.4998C56.9345 70.2347 56.3798 70.8587 55.8358 71.456C55.3025 72.0427 54.7158 72.6507 54.0758 73.28C54.3958 73.568 54.7265 73.9147 55.0678 74.32C55.4091 74.7147 55.7398 75.1253 56.0598 75.552C56.3798 75.9787 56.6731 76.4053 56.9398 76.832C57.2065 77.2587 57.4305 77.648 57.6118 78H54.8758C54.7051 77.7227 54.5078 77.4187 54.2838 77.088C54.0705 76.7467 53.8411 76.4107 53.5958 76.08C53.3505 75.7387 53.0891 75.4133 52.8118 75.104C52.5451 74.7947 52.2785 74.5333 52.0118 74.32V78H49.6278V65.968L52.0118 65.584V72.624ZM71.7969 78.224C69.9943 78.224 68.6183 77.7227 67.6689 76.72C66.7303 75.7173 66.2609 74.2933 66.2609 72.448C66.2609 71.5307 66.4049 70.7147 66.6929 70C66.9809 69.2747 67.3756 68.6667 67.8769 68.176C68.3783 67.6747 68.9756 67.296 69.6689 67.04C70.3623 66.784 71.1143 66.656 71.9249 66.656C72.3943 66.656 72.8209 66.6933 73.2049 66.768C73.5889 66.832 73.9249 66.912 74.2129 67.008C74.5009 67.0933 74.7409 67.184 74.9329 67.28C75.1249 67.376 75.2636 67.4507 75.3489 67.504L74.6289 69.52C74.2876 69.3387 73.8876 69.184 73.4289 69.056C72.9809 68.928 72.4689 68.864 71.8929 68.864C71.5089 68.864 71.1303 68.928 70.7569 69.056C70.3943 69.184 70.0689 69.392 69.7809 69.68C69.5036 69.9573 69.2796 70.32 69.1089 70.768C68.9383 71.216 68.8529 71.76 68.8529 72.4C68.8529 72.912 68.9063 73.392 69.0129 73.84C69.1303 74.2773 69.3116 74.656 69.5569 74.976C69.8129 75.296 70.1436 75.552 70.5489 75.744C70.9543 75.9253 71.4449 76.016 72.0209 76.016C72.3836 76.016 72.7089 75.9947 72.9969 75.952C73.2849 75.9093 73.5409 75.8613 73.7649 75.808C73.9889 75.744 74.1863 75.6747 74.3569 75.6C74.5276 75.5253 74.6823 75.456 74.8209 75.392L75.5089 77.392C75.1569 77.6053 74.6609 77.7973 74.0209 77.968C73.3809 78.1387 72.6396 78.224 71.7969 78.224ZM84.6404 73.776C84.6404 74.4373 84.5444 75.0453 84.3524 75.6C84.1604 76.144 83.8831 76.6133 83.5204 77.008C83.1578 77.392 82.7204 77.6907 82.2084 77.904C81.7071 78.1173 81.1418 78.224 80.5124 78.224C79.8938 78.224 79.3284 78.1173 78.8164 77.904C78.3151 77.6907 77.8831 77.392 77.5204 77.008C77.1578 76.6133 76.8751 76.144 76.6724 75.6C76.4698 75.0453 76.3684 74.4373 76.3684 73.776C76.3684 73.1147 76.4698 72.512 76.6724 71.968C76.8858 71.424 77.1738 70.96 77.5364 70.576C77.9098 70.192 78.3471 69.8933 78.8484 69.68C79.3604 69.4667 79.9151 69.36 80.5124 69.36C81.1204 69.36 81.6751 69.4667 82.1764 69.68C82.6884 69.8933 83.1258 70.192 83.4884 70.576C83.8511 70.96 84.1338 71.424 84.3364 71.968C84.5391 72.512 84.6404 73.1147 84.6404 73.776ZM82.2084 73.776C82.2084 73.04 82.0591 72.464 81.7604 72.048C81.4724 71.6213 81.0564 71.408 80.5124 71.408C79.9684 71.408 79.5471 71.6213 79.2484 72.048C78.9498 72.464 78.8004 73.04 78.8004 73.776C78.8004 74.512 78.9498 75.0987 79.2484 75.536C79.5471 75.9627 79.9684 76.176 80.5124 76.176C81.0564 76.176 81.4724 75.9627 81.7604 75.536C82.0591 75.0987 82.2084 74.512 82.2084 73.776ZM93.6712 77.712C93.2659 77.8293 92.7432 77.936 92.1032 78.032C91.4632 78.1387 90.7912 78.192 90.0872 78.192C89.3725 78.192 88.7752 78.096 88.2952 77.904C87.8259 77.712 87.4525 77.4453 87.1752 77.104C86.8979 76.752 86.7005 76.336 86.5832 75.856C86.4659 75.376 86.4072 74.848 86.4072 74.272V69.584H88.7912V73.984C88.7912 74.752 88.8925 75.3067 89.0952 75.648C89.2979 75.9893 89.6765 76.16 90.2312 76.16C90.4019 76.16 90.5832 76.1547 90.7752 76.144C90.9672 76.1227 91.1379 76.1013 91.2872 76.08V69.584H93.6712V77.712ZM95.9091 69.872C96.3144 69.7547 96.8371 69.648 97.4771 69.552C98.1171 69.4453 98.7891 69.392 99.4931 69.392C100.208 69.392 100.8 69.488 101.269 69.68C101.749 69.8613 102.128 70.1227 102.405 70.464C102.682 70.8053 102.88 71.2107 102.997 71.68C103.114 72.1493 103.173 72.672 103.173 73.248V78H100.789V73.536C100.789 72.768 100.688 72.224 100.485 71.904C100.282 71.584 99.9037 71.424 99.3491 71.424C99.1784 71.424 98.9971 71.4347 98.8051 71.456C98.6131 71.4667 98.4424 71.4827 98.2931 71.504V78H95.9091V69.872ZM105.251 67.488L107.635 67.104V69.584H110.499V71.568H107.635V74.528C107.635 75.0293 107.72 75.4293 107.891 75.728C108.072 76.0267 108.43 76.176 108.963 76.176C109.219 76.176 109.48 76.1547 109.747 76.112C110.024 76.0587 110.275 75.9893 110.499 75.904L110.835 77.76C110.547 77.8773 110.227 77.9787 109.875 78.064C109.523 78.1493 109.091 78.192 108.579 78.192C107.928 78.192 107.39 78.1067 106.963 77.936C106.536 77.7547 106.195 77.5093 105.939 77.2C105.683 76.88 105.502 76.496 105.395 76.048C105.299 75.6 105.251 75.104 105.251 74.56V67.488ZM18.7252 84.784C20.3785 84.784 21.6479 85.0773 22.5332 85.664C23.4185 86.24 23.8612 87.1893 23.8612 88.512C23.8612 89.8453 23.4132 90.8107 22.5172 91.408C21.6212 91.9947 20.3412 92.288 18.6772 92.288H17.8932V96H15.3972V85.072C15.9412 84.9653 16.5172 84.8907 17.1252 84.848C17.7332 84.8053 18.2665 84.784 18.7252 84.784ZM18.8852 86.912C18.7039 86.912 18.5225 86.9173 18.3412 86.928C18.1705 86.9387 18.0212 86.9493 17.8932 86.96V90.16H18.6772C19.5412 90.16 20.1919 90.0427 20.6292 89.808C21.0665 89.5733 21.2852 89.136 21.2852 88.496C21.2852 88.1867 21.2265 87.9307 21.1092 87.728C21.0025 87.5253 20.8425 87.3653 20.6292 87.248C20.4265 87.12 20.1759 87.0347 19.8772 86.992C19.5785 86.9387 19.2479 86.912 18.8852 86.912ZM30.6061 89.696C30.3927 89.6427 30.1421 89.5893 29.8541 89.536C29.5661 89.472 29.2567 89.44 28.9261 89.44C28.7767 89.44 28.5954 89.456 28.3821 89.488C28.1794 89.5093 28.0247 89.536 27.9181 89.568V96H25.5341V88.032C25.9607 87.8827 26.4621 87.744 27.0381 87.616C27.6247 87.4773 28.2754 87.408 28.9901 87.408C29.1181 87.408 29.2727 87.4187 29.4541 87.44C29.6354 87.4507 29.8167 87.472 29.9981 87.504C30.1794 87.5253 30.3607 87.5573 30.5421 87.6C30.7234 87.632 30.8781 87.6747 31.0061 87.728L30.6061 89.696ZM39.9998 91.776C39.9998 92.4373 39.9038 93.0453 39.7118 93.6C39.5198 94.144 39.2425 94.6133 38.8798 95.008C38.5171 95.392 38.0798 95.6907 37.5678 95.904C37.0665 96.1173 36.5011 96.224 35.8718 96.224C35.2531 96.224 34.6878 96.1173 34.1758 95.904C33.6745 95.6907 33.2425 95.392 32.8798 95.008C32.5171 94.6133 32.2345 94.144 32.0318 93.6C31.8291 93.0453 31.7278 92.4373 31.7278 91.776C31.7278 91.1147 31.8291 90.512 32.0318 89.968C32.2451 89.424 32.5331 88.96 32.8958 88.576C33.2691 88.192 33.7065 87.8933 34.2078 87.68C34.7198 87.4667 35.2745 87.36 35.8718 87.36C36.4798 87.36 37.0345 87.4667 37.5358 87.68C38.0478 87.8933 38.4851 88.192 38.8478 88.576C39.2105 88.96 39.4931 89.424 39.6958 89.968C39.8985 90.512 39.9998 91.1147 39.9998 91.776ZM37.5678 91.776C37.5678 91.04 37.4185 90.464 37.1198 90.048C36.8318 89.6213 36.4158 89.408 35.8718 89.408C35.3278 89.408 34.9065 89.6213 34.6078 90.048C34.3091 90.464 34.1598 91.04 34.1598 91.776C34.1598 92.512 34.3091 93.0987 34.6078 93.536C34.9065 93.9627 35.3278 94.176 35.8718 94.176C36.4158 94.176 36.8318 93.9627 37.1198 93.536C37.4185 93.0987 37.5678 92.512 37.5678 91.776ZM43.8786 91.52C43.8786 92.8533 44.4172 93.52 45.4946 93.52C45.7399 93.52 45.9692 93.488 46.1826 93.424C46.3959 93.36 46.5772 93.2853 46.7266 93.2V89.392C46.6092 89.3707 46.4706 89.3547 46.3106 89.344C46.1506 89.3227 45.9639 89.312 45.7506 89.312C45.1212 89.312 44.6519 89.52 44.3426 89.936C44.0332 90.352 43.8786 90.88 43.8786 91.52ZM49.1106 94.944C49.1106 96.32 48.7586 97.3387 48.0546 98C47.3612 98.672 46.2839 99.008 44.8226 99.008C44.3106 99.008 43.7986 98.96 43.2866 98.864C42.7746 98.7787 42.2999 98.6613 41.8626 98.512L42.2786 96.512C42.6519 96.6613 43.0412 96.7787 43.4466 96.864C43.8626 96.9493 44.3319 96.992 44.8546 96.992C45.5372 96.992 46.0172 96.8427 46.2946 96.544C46.5826 96.2453 46.7266 95.8613 46.7266 95.392V95.088C46.4706 95.2053 46.2039 95.296 45.9266 95.36C45.6599 95.4133 45.3666 95.44 45.0466 95.44C43.8839 95.44 42.9932 95.0987 42.3746 94.416C41.7559 93.7227 41.4466 92.7573 41.4466 91.52C41.4466 90.9013 41.5426 90.3413 41.7346 89.84C41.9266 89.328 42.2039 88.8907 42.5666 88.528C42.9399 88.1653 43.3932 87.888 43.9266 87.696C44.4599 87.4933 45.0626 87.392 45.7346 87.392C46.0226 87.392 46.3159 87.408 46.6146 87.44C46.9239 87.4613 47.2279 87.4933 47.5266 87.536C47.8252 87.5787 48.1079 87.632 48.3746 87.696C48.6519 87.7493 48.8972 87.808 49.1106 87.872V94.944ZM56.4186 89.696C56.2052 89.6427 55.9546 89.5893 55.6666 89.536C55.3786 89.472 55.0692 89.44 54.7386 89.44C54.5892 89.44 54.4079 89.456 54.1946 89.488C53.9919 89.5093 53.8372 89.536 53.7306 89.568V96H51.3466V88.032C51.7732 87.8827 52.2746 87.744 52.8506 87.616C53.4372 87.4773 54.0879 87.408 54.8026 87.408C54.9306 87.408 55.0852 87.4187 55.2666 87.44C55.4479 87.4507 55.6292 87.472 55.8106 87.504C55.9919 87.5253 56.1732 87.5573 56.3546 87.6C56.5359 87.632 56.6906 87.6747 56.8186 87.728L56.4186 89.696ZM57.5403 91.856C57.5403 91.1093 57.6523 90.4587 57.8763 89.904C58.111 89.3387 58.415 88.8693 58.7883 88.496C59.1616 88.1227 59.5883 87.84 60.0683 87.648C60.559 87.456 61.0603 87.36 61.5723 87.36C62.767 87.36 63.711 87.728 64.4043 88.464C65.0976 89.1893 65.4443 90.2613 65.4443 91.68C65.4443 91.8187 65.439 91.9733 65.4283 92.144C65.4176 92.304 65.407 92.448 65.3963 92.576H59.9883C60.0416 93.0667 60.271 93.456 60.6763 93.744C61.0816 94.032 61.6256 94.176 62.3083 94.176C62.7456 94.176 63.1723 94.1387 63.5883 94.064C64.015 93.9787 64.3616 93.8773 64.6283 93.76L64.9483 95.696C64.8203 95.76 64.6496 95.824 64.4363 95.888C64.223 95.952 63.983 96.0053 63.7163 96.048C63.4603 96.1013 63.183 96.144 62.8843 96.176C62.5856 96.208 62.287 96.224 61.9883 96.224C61.231 96.224 60.5696 96.112 60.0043 95.888C59.4496 95.664 58.9856 95.36 58.6123 94.976C58.2496 94.5813 57.9776 94.1173 57.7963 93.584C57.6256 93.0507 57.5403 92.4747 57.5403 91.856ZM63.1403 90.944C63.1296 90.7413 63.0923 90.544 63.0283 90.352C62.975 90.16 62.8843 89.9893 62.7563 89.84C62.639 89.6907 62.4843 89.568 62.2923 89.472C62.111 89.376 61.8816 89.328 61.6043 89.328C61.3376 89.328 61.1083 89.376 60.9163 89.472C60.7243 89.5573 60.5643 89.6747 60.4363 89.824C60.3083 89.9733 60.207 90.1493 60.1323 90.352C60.0683 90.544 60.0203 90.7413 59.9883 90.944H63.1403ZM69.7001 94.288C70.1374 94.288 70.4467 94.2453 70.6281 94.16C70.8094 94.0747 70.9001 93.9093 70.9001 93.664C70.9001 93.472 70.7827 93.3067 70.5481 93.168C70.3134 93.0187 69.9561 92.8533 69.4761 92.672C69.1027 92.5333 68.7614 92.3893 68.4521 92.24C68.1534 92.0907 67.8974 91.9147 67.6841 91.712C67.4707 91.4987 67.3054 91.248 67.1881 90.96C67.0707 90.672 67.0121 90.3253 67.0121 89.92C67.0121 89.1307 67.3054 88.5067 67.8921 88.048C68.4787 87.5893 69.2841 87.36 70.3081 87.36C70.8201 87.36 71.3107 87.408 71.7801 87.504C72.2494 87.5893 72.6227 87.6853 72.9001 87.792L72.4841 89.648C72.2067 89.552 71.9027 89.4667 71.5721 89.392C71.2521 89.3173 70.8894 89.28 70.4841 89.28C69.7374 89.28 69.3641 89.488 69.3641 89.904C69.3641 90 69.3801 90.0853 69.4121 90.16C69.4441 90.2347 69.5081 90.3093 69.6041 90.384C69.7001 90.448 69.8281 90.5227 69.9881 90.608C70.1587 90.6827 70.3721 90.768 70.6281 90.864C71.1507 91.056 71.5827 91.248 71.9241 91.44C72.2654 91.6213 72.5321 91.824 72.7241 92.048C72.9267 92.2613 73.0654 92.5013 73.1401 92.768C73.2254 93.0347 73.2681 93.344 73.2681 93.696C73.2681 94.528 72.9534 95.1573 72.3241 95.584C71.7054 96.0107 70.8254 96.224 69.6841 96.224C68.9374 96.224 68.3134 96.16 67.8121 96.032C67.3214 95.904 66.9801 95.7973 66.7881 95.712L67.1881 93.776C67.5934 93.936 68.0094 94.064 68.4361 94.16C68.8627 94.2453 69.2841 94.288 69.7001 94.288ZM77.4657 94.288C77.903 94.288 78.2124 94.2453 78.3937 94.16C78.575 94.0747 78.6657 93.9093 78.6657 93.664C78.6657 93.472 78.5484 93.3067 78.3137 93.168C78.079 93.0187 77.7217 92.8533 77.2417 92.672C76.8684 92.5333 76.527 92.3893 76.2177 92.24C75.919 92.0907 75.663 91.9147 75.4497 91.712C75.2364 91.4987 75.071 91.248 74.9537 90.96C74.8364 90.672 74.7777 90.3253 74.7777 89.92C74.7777 89.1307 75.071 88.5067 75.6577 88.048C76.2444 87.5893 77.0497 87.36 78.0737 87.36C78.5857 87.36 79.0764 87.408 79.5457 87.504C80.015 87.5893 80.3884 87.6853 80.6657 87.792L80.2497 89.648C79.9724 89.552 79.6684 89.4667 79.3377 89.392C79.0177 89.3173 78.655 89.28 78.2497 89.28C77.503 89.28 77.1297 89.488 77.1297 89.904C77.1297 90 77.1457 90.0853 77.1777 90.16C77.2097 90.2347 77.2737 90.3093 77.3697 90.384C77.4657 90.448 77.5937 90.5227 77.7537 90.608C77.9244 90.6827 78.1377 90.768 78.3937 90.864C78.9164 91.056 79.3484 91.248 79.6897 91.44C80.031 91.6213 80.2977 91.824 80.4897 92.048C80.6924 92.2613 80.831 92.5013 80.9057 92.768C80.991 93.0347 81.0337 93.344 81.0337 93.696C81.0337 94.528 80.719 95.1573 80.0897 95.584C79.471 96.0107 78.591 96.224 77.4497 96.224C76.703 96.224 76.079 96.16 75.5777 96.032C75.087 95.904 74.7457 95.7973 74.5537 95.712L74.9537 93.776C75.359 93.936 75.775 94.064 76.2017 94.16C76.6284 94.2453 77.0497 94.288 77.4657 94.288ZM90.5151 96.144C89.9071 96.144 89.2991 96.1227 88.6911 96.08C88.0937 96.048 87.4697 95.9627 86.8191 95.824V85.072C87.3311 84.976 87.8911 84.9067 88.4991 84.864C89.1071 84.8107 89.6724 84.784 90.1951 84.784C90.8991 84.784 91.5444 84.8373 92.1311 84.944C92.7284 85.04 93.2404 85.2107 93.6671 85.456C94.0937 85.7013 94.4244 86.0267 94.6591 86.432C94.9044 86.8267 95.0271 87.3173 95.0271 87.904C95.0271 88.7893 94.6004 89.488 93.7471 90C94.4511 90.2667 94.9311 90.6293 95.1871 91.088C95.4431 91.5467 95.5711 92.064 95.5711 92.64C95.5711 93.8027 95.1444 94.6773 94.2911 95.264C93.4484 95.8507 92.1897 96.144 90.5151 96.144ZM89.2511 91.168V94.032C89.4324 94.0533 89.6297 94.0693 89.8431 94.08C90.0564 94.0907 90.2911 94.096 90.5471 94.096C91.2937 94.096 91.8964 93.9893 92.3551 93.776C92.8137 93.5627 93.0431 93.168 93.0431 92.592C93.0431 92.08 92.8511 91.7173 92.4671 91.504C92.0831 91.28 91.5337 91.168 90.8191 91.168H89.2511ZM89.2511 89.264H90.4671C91.2351 89.264 91.7844 89.168 92.1151 88.976C92.4457 88.7733 92.6111 88.4533 92.6111 88.016C92.6111 87.568 92.4404 87.2533 92.0991 87.072C91.7577 86.8907 91.2564 86.8 90.5951 86.8C90.3817 86.8 90.1524 86.8053 89.9071 86.816C89.6617 86.816 89.4431 86.8267 89.2511 86.848V89.264ZM100.625 94.336C100.86 94.336 101.084 94.3307 101.297 94.32C101.51 94.3093 101.681 94.2933 101.809 94.272V92.464C101.713 92.4427 101.569 92.4213 101.377 92.4C101.185 92.3787 101.009 92.368 100.849 92.368C100.625 92.368 100.412 92.384 100.209 92.416C100.017 92.4373 99.8464 92.4853 99.6971 92.56C99.5477 92.6347 99.4304 92.736 99.3451 92.864C99.2597 92.992 99.2171 93.152 99.2171 93.344C99.2171 93.7173 99.3397 93.9787 99.5851 94.128C99.8411 94.2667 100.188 94.336 100.625 94.336ZM100.433 87.36C101.137 87.36 101.724 87.44 102.193 87.6C102.662 87.76 103.036 87.9893 103.313 88.288C103.601 88.5867 103.804 88.9493 103.921 89.376C104.038 89.8027 104.097 90.2773 104.097 90.8V95.76C103.756 95.8347 103.281 95.92 102.673 96.016C102.065 96.1227 101.329 96.176 100.465 96.176C99.9211 96.176 99.4251 96.128 98.9771 96.032C98.5397 95.936 98.1611 95.7813 97.8411 95.568C97.5211 95.344 97.2757 95.056 97.1051 94.704C96.9344 94.352 96.8491 93.92 96.8491 93.408C96.8491 92.9173 96.9451 92.5013 97.1371 92.16C97.3397 91.8187 97.6064 91.5467 97.9371 91.344C98.2677 91.1413 98.6464 90.9973 99.0731 90.912C99.4997 90.816 99.9424 90.768 100.401 90.768C100.71 90.768 100.982 90.784 101.217 90.816C101.462 90.8373 101.66 90.8693 101.809 90.912V90.688C101.809 90.2827 101.686 89.9573 101.441 89.712C101.196 89.4667 100.769 89.344 100.161 89.344C99.7557 89.344 99.3557 89.376 98.9611 89.44C98.5664 89.4933 98.2251 89.5733 97.9371 89.68L97.6331 87.76C97.7717 87.7173 97.9424 87.6747 98.1451 87.632C98.3584 87.5787 98.5877 87.536 98.8331 87.504C99.0784 87.4613 99.3344 87.4293 99.6011 87.408C99.8784 87.376 100.156 87.36 100.433 87.36ZM111.325 89.696C111.111 89.6427 110.861 89.5893 110.573 89.536C110.285 89.472 109.975 89.44 109.645 89.44C109.495 89.44 109.314 89.456 109.101 89.488C108.898 89.5093 108.743 89.536 108.637 89.568V96H106.253V88.032C106.679 87.8827 107.181 87.744 107.757 87.616C108.343 87.4773 108.994 87.408 109.709 87.408C109.837 87.408 109.991 87.4187 110.173 87.44C110.354 87.4507 110.535 87.472 110.717 87.504C110.898 87.5253 111.079 87.5573 111.261 87.6C111.442 87.632 111.597 87.6747 111.725 87.728L111.325 89.696Z" fill="#FCE77D"/>
<g filter="url(#filter0_d_2_9)">
<rect x="12" y="36" width="105" height="15" rx="7.5" fill="#F96167"/>
<rect x="12.5" y="36.5" width="104" height="14" rx="7" stroke="white"/>
</g>
<g filter="url(#filter1_d_2_9)">
<path d="M78 36H108.5C112.642 36 116 39.3579 116 43.5C116 47.6421 112.642 51 108.5 51H78V36Z" fill="white"/>
<path d="M78.5 36.5H108.5C112.366 36.5 115.5 39.634 115.5 43.5C115.5 47.366 112.366 50.5 108.5 50.5H78.5V36.5Z" stroke="white"/>
</g>
<defs>
<filter id="filter0_d_2_9" x="8" y="36" width="113" height="23" filterUnits="userSpaceOnUse" color-interpolation-filters="sRGB">
<feFlood flood-opacity="0" result="BackgroundImageFix"/>
<feColorMatrix in="SourceAlpha" type="matrix" values="0 0 0 0 0 0 0 0 0 0 0 0 0 0 0 0 0 0 127 0" result="hardAlpha"/>
<feOffset dy="4"/>
<feGaussianBlur stdDeviation="2"/>
<feComposite in2="hardAlpha" operator="out"/>
<feColorMatrix type="matrix" values="0 0 0 0 0 0 0 0 0 0 0 0 0 0 0 0 0 0 0.25 0"/>
<feBlend mode="normal" in2="BackgroundImageFix" result="effect1_dropShadow_2_9"/>
<feBlend mode="normal" in="SourceGraphic" in2="effect1_dropShadow_2_9" result="shape"/>
</filter>
<filter id="filter1_d_2_9" x="74" y="36" width="46" height="23" filterUnits="userSpaceOnUse" color-interpolation-filters="sRGB">
<feFlood flood-opacity="0" result="BackgroundImageFix"/>
<feColorMatrix in="SourceAlpha" type="matrix" values="0 0 0 0 0 0 0 0 0 0 0 0 0 0 0 0 0 0 127 0" result="hardAlpha"/>
<feOffset dy="4"/>
<feGaussianBlur stdDeviation="2"/>
<feComposite in2="hardAlpha" operator="out"/>
<feColorMatrix type="matrix" values="0 0 0 0 0 0 0 0 0 0 0 0 0 0 0 0 0 0 0.25 0"/>
<feBlend mode="normal" in2="BackgroundImageFix" result="effect1_dropShadow_2_9"/>
<feBlend mode="normal" in="SourceGraphic" in2="effect1_dropShadow_2_9" result="shape"/>
</filter>
</defs>
</svg>
